<svg width="1789" height="2265" viewBox="0 0 1789 2265" fill="none" xmlns="http://www.w3.org/2000/svg">
<rect x="1601" width="105" height="104" rx="52" fill="#D9D9D9"/>
<rect x="144" y="794" width="105" height="104" rx="52" fill="#D9D9D9"/>
<rect width="23" height="23" rx="11.5" transform="matrix(1 0 0 -1 67 549)" fill="#D9D9D9"/>
<rect width="23" height="23" rx="11.5" transform="matrix(1 0 0 -1 0 1435)" fill="#D9D9D9"/>
<rect width="23" height="23" rx="11.5" transform="matrix(1 0 0 -1 249 1709)" fill="#D9D9D9"/>
<rect width="45" height="45" rx="22.5" transform="matrix(1 0 0 -1 259 192)" fill="#D9D9D9"/>
<rect width="45" height="45" rx="22.5" transform="matrix(1 0 0 -1 1578 414)" fill="#D9D9D9"/>
<rect width="45" height="45" rx="22.5" transform="matrix(1 0 0 -1 1744 1209)" fill="#D9D9D9"/>
<rect x="1578" y="1605" width="105" height="104" rx="52" fill="#D9D9D9"/>
<rect x="128" y="2161" width="105" height="104" rx="52" fill="#D9D9D9"/>
</svg>
